<svg width="197" height="15" viewBox="0 0 197 15" fill="none" xmlns="http://www.w3.org/2000/svg">
<path d="M0.994872 7.33131C0.442594 7.33414 -0.00281902 7.78415 1.31726e-05 8.33643C0.00284536 8.8887 0.452851 9.33412 1.00513 9.33129L1 8.3313L0.994872 7.33131ZM196.711 8.03477C197.099 7.64225 197.096 7.00909 196.703 6.62058L190.307 0.289333C189.914 -0.0991831 189.281 -0.0959362 188.893 0.296586C188.504 0.689107 188.507 1.32226 188.9 1.71078L194.586 7.33855L188.958 13.0243C188.57 13.4169 188.573 14.05 188.965 14.4385C189.358 14.8271 189.991 14.8238 190.379 14.4313L196.711 8.03477ZM1 8.3313L1.00513 9.33129L196.005 8.33129L196 7.3313L195.995 6.33131L0.994872 7.33131L1 8.3313Z" fill="black"/>
</svg>
